<svg width="16" height="16" viewBox="0 0 16 16" fill="none" xmlns="http://www.w3.org/2000/svg">
<path d="M7.84861 16C12.1833 16 15.6972 12.4183 15.6972 8C15.6972 3.58172 12.1833 0 7.84861 0C3.51394 0 0 3.58172 0 8C0 12.4183 3.51394 16 7.84861 16Z" fill="#406732"/>
<path d="M7.8489 15.2C11.7501 15.2 14.9126 11.9764 14.9126 7.99999C14.9126 4.02354 11.7501 0.799988 7.8489 0.799988C3.9477 0.799988 0.785156 4.02354 0.785156 7.99999C0.785156 11.9764 3.9477 15.2 7.8489 15.2Z" fill="white"/>
<path d="M8.9623 11.6779C8.90814 11.6776 8.85528 11.6636 8.81007 11.6375C8.76486 11.6114 8.72926 11.5744 8.7076 11.531C8.69268 11.5016 8.68455 11.4699 8.68367 11.4377C8.68276 11.4055 8.68914 11.3735 8.70238 11.3435C8.71563 11.3135 8.73554 11.2861 8.76094 11.2628C8.7863 11.2395 8.81669 11.2208 8.85035 11.2078C9.15917 11.089 9.43723 10.9165 9.66761 10.7009L9.77115 10.603L9.91948 10.6275C10.0656 10.6495 10.2135 10.661 10.3617 10.6617C11.0298 10.6617 11.6705 10.4296 12.1429 10.0163C12.6153 9.60301 12.8806 9.04247 12.8806 8.45802C12.8814 8.14253 12.8031 7.83079 12.6511 7.54468L12.584 7.41492L12.6791 7.29981C12.9929 6.92564 13.1616 6.47348 13.1606 6.00941C13.1606 5.42493 12.8951 4.86442 12.4228 4.45114C11.9504 4.03786 11.3097 3.80567 10.6416 3.80567H10.4625L10.2861 3.6906L10.2385 3.6049C10.0743 3.16221 9.75394 2.77639 9.32355 2.50279C8.89317 2.22916 8.37478 2.0818 7.84277 2.0818C7.31073 2.0818 6.79238 2.22916 6.36199 2.50279C5.93161 2.77639 5.61129 3.16221 5.44697 3.6049L5.41897 3.6857L5.22307 3.80567H5.04393C4.37589 3.80567 3.73516 4.03786 3.26277 4.45114C2.79038 4.86442 2.525 5.42493 2.525 6.00941C2.52396 6.47348 2.69264 6.92564 3.0064 7.29981L3.10156 7.41492L3.03437 7.54468C2.88246 7.83079 2.80413 8.14253 2.80488 8.45802C2.80488 9.04247 3.07026 9.60301 3.54265 10.0163C4.01504 10.4296 4.65577 10.6617 5.32381 10.6617C5.46926 10.6606 5.61434 10.6492 5.75765 10.6275L5.90599 10.603L6.00953 10.7009C6.24087 10.9156 6.51868 11.0879 6.82679 11.2078C6.86044 11.2208 6.89083 11.2395 6.9162 11.2628C6.9416 11.2861 6.9615 11.3135 6.97475 11.3435C6.988 11.3735 6.99437 11.4055 6.99346 11.4377C6.99258 11.4699 6.98445 11.5016 6.96954 11.531C6.95466 11.5604 6.93331 11.587 6.90669 11.6092C6.88006 11.6314 6.8487 11.6488 6.81439 11.6604C6.78007 11.672 6.7435 11.6776 6.70674 11.6768C6.66994 11.676 6.63371 11.6689 6.60009 11.6559C6.26888 11.5285 5.96646 11.3502 5.70726 11.1294C5.58012 11.1438 5.45203 11.1512 5.32381 11.1515C4.5073 11.1515 3.7242 10.8677 3.14686 10.3626C2.56948 9.85744 2.24512 9.17236 2.24512 8.45802C2.2459 8.12256 2.31902 7.79028 2.46061 7.47856C2.16092 7.07591 1.98982 6.61044 1.96505 6.1304C1.94028 5.6504 2.06272 5.17332 2.31968 4.74864C2.57667 4.324 2.95884 3.9672 3.42652 3.71527C3.89423 3.46336 4.43045 3.32551 4.97957 3.31597C5.20461 2.81047 5.59889 2.3762 6.11078 2.07002C6.62266 1.76384 7.22829 1.60004 7.84836 1.60004C8.46843 1.60004 9.07406 1.76384 9.58595 2.07002C10.0978 2.3762 10.4921 2.81047 10.7172 3.31597C11.2663 3.32551 11.8025 3.46336 12.2702 3.71527C12.7379 3.9672 13.1201 4.324 13.377 4.74864C13.634 5.17332 13.7564 5.6504 13.7317 6.1304C13.7069 6.61044 13.5358 7.07591 13.2361 7.47856C13.3739 7.79092 13.4432 8.1232 13.4404 8.45802C13.4404 9.17236 13.1161 9.85744 12.5387 10.3626C11.9613 10.8677 11.1782 11.1515 10.3617 11.1515C10.2335 11.1512 10.1054 11.1438 9.97826 11.1294C9.71906 11.3502 9.41667 11.5285 9.08543 11.6559C9.04684 11.6713 9.00471 11.6788 8.9623 11.6779Z" fill="#416831"/>
<path d="M3.38172 6.7243H3.36492C3.32835 6.72094 3.29287 6.71131 3.26057 6.69595C3.22823 6.68059 3.1997 6.65982 3.17656 6.63479C3.15342 6.6098 3.13615 6.58103 3.12573 6.55019C3.11531 6.51931 3.11195 6.48695 3.11581 6.45495C3.19549 5.80673 3.5412 5.2058 4.08885 4.76363C4.63646 4.32145 5.34883 4.06804 6.09379 4.05044C6.26379 3.67403 6.52801 3.33569 6.86703 3.06027C7.20606 2.78484 7.61127 2.57937 8.05296 2.45886C8.12385 2.43975 8.20051 2.44603 8.26613 2.47633C8.33171 2.50663 8.38087 2.55847 8.40282 2.62046C8.42479 2.68215 8.41801 2.74897 8.38392 2.80631C8.34986 2.86363 8.29124 2.90686 8.22089 2.92654C7.83794 3.03182 7.4893 3.21563 7.20399 3.46267C6.91871 3.70971 6.70504 4.01281 6.58078 4.34673L6.55278 4.42753L6.35688 4.54753L6.16374 4.54017C5.54385 4.53982 4.9456 4.73947 4.48344 5.10087C4.02129 5.46228 3.72769 5.96007 3.65881 6.49905C3.65319 6.56011 3.62164 6.61713 3.57034 6.65883C3.51904 6.70052 3.45173 6.72388 3.38172 6.7243ZM7.84306 13.5999C7.76881 13.5999 7.69764 13.5742 7.64514 13.5282C7.59265 13.4823 7.56317 13.42 7.56317 13.3551V9.82667L9.32362 8.28408C9.37633 8.23796 9.44781 8.21204 9.52234 8.21204C9.59687 8.21204 9.66836 8.23796 9.72107 8.28408C9.77375 8.33019 9.80335 8.39271 9.80335 8.4579C9.80335 8.52311 9.77375 8.58564 9.72107 8.63175L8.12294 10.0275V13.3551C8.12294 13.42 8.09343 13.4823 8.04097 13.5282C7.98847 13.5742 7.91727 13.5999 7.84306 13.5999Z" fill="#416831"/>
<path d="M7.84279 10.1719C7.80596 10.1721 7.76942 10.1659 7.73533 10.1537C7.70123 10.1415 7.67021 10.1236 7.64406 10.1009L5.96478 8.63172C5.93869 8.60887 5.91797 8.5818 5.90384 8.55194C5.88974 8.52212 5.88246 8.49015 5.88246 8.45786C5.88246 8.42557 5.88974 8.39361 5.90384 8.36378C5.91797 8.33396 5.93869 8.30685 5.96478 8.28401C5.99086 8.26119 6.02185 8.24308 6.05594 8.23073C6.09004 8.21837 6.12658 8.21201 6.1635 8.21201C6.20039 8.21201 6.23693 8.21837 6.27103 8.23073C6.30512 8.24308 6.33611 8.26119 6.3622 8.28401L8.04152 9.75316C8.06773 9.77594 8.08854 9.80301 8.10277 9.83287C8.11699 9.86269 8.1243 9.89469 8.1243 9.92701C8.1243 9.95933 8.11699 9.99133 8.10277 10.0212C8.08854 10.051 8.06773 10.0781 8.04152 10.1009C8.01533 10.1236 7.98435 10.1415 7.95022 10.1537C7.91613 10.1659 7.87962 10.1721 7.84279 10.1719ZM10.3617 13.5999C10.3064 13.5999 10.2522 13.5855 10.2062 13.5586C10.1602 13.5317 10.1243 13.4935 10.1032 13.4487C10.082 13.404 10.0764 13.3548 10.0872 13.3073C10.098 13.2598 10.1247 13.2162 10.1638 13.1819C10.203 13.1477 10.2528 13.1243 10.3071 13.1149C10.3614 13.1054 10.4177 13.1103 10.4688 13.1288C10.52 13.1474 10.5637 13.1788 10.5944 13.219C10.6252 13.2593 10.6416 13.3066 10.6416 13.355C10.6416 13.42 10.6121 13.4823 10.5596 13.5282C10.5071 13.5741 10.436 13.5999 10.3617 13.5999ZM9.2422 13.5999H5.32383C5.24961 13.5999 5.17841 13.5741 5.12595 13.5282C5.07346 13.4823 5.04395 13.42 5.04395 13.355C5.04395 13.2901 5.07346 13.2278 5.12595 13.1819C5.17841 13.136 5.24961 13.1102 5.32383 13.1102H9.2422C9.31641 13.1102 9.38761 13.136 9.44011 13.1819C9.4926 13.2278 9.52208 13.2901 9.52208 13.355C9.52208 13.42 9.4926 13.4823 9.44011 13.5282C9.38761 13.5741 9.31641 13.5999 9.2422 13.5999Z" fill="#416831"/>
</svg>
